o Pyramid
usemtl Mat
v -100 -100 -100
v 100 -100 -100
v 100 -100 100
v -100 -100 -100
v 100 -100 100
v -100 -100 100
v 100 -100 100
v 100 -100 -100
v 0 100 0
v 100 -100 -100
v -100 -100 -100
v 0 100 0
v -100 -100 -100
v -100 -100 100
v 0 100 0
v -100 -100 100
v 100 -100 100
v 0 100 0
vt -0.014214214868843555 -0.02288985252380371
vt 1.0220645666122437 -0.02288985252380371
vt 1.0220645666122437 1.0133888721466064
vt -0.014214214868843555 -0.02288985252380371
vt 1.0220645666122437 1.0133888721466064
vt -0.014214214868843555 1.0133888721466064
vt -0.013388815335929394 -0.007932186126708984
vt 1.0228899717330933 -0.007932186126708984
vt 0.5047505497932434 1.0283464193344116
vt -0.022064542397856712 -0.007932186126708984
vt 1.0142141580581665 -0.007932186126708984
vt 0.4960748255252838 1.0283464193344116
vt -0.022889941930770874 -0.007932186126708984
vt 1.0133888721466064 -0.007932186126708984
vt 0.4952494502067566 1.0283464193344116
vt -0.014214214868843555 -0.007932186126708984
vt 1.0220645666122437 -0.007932186126708984
vt 0.5039251446723938 1.0283464193344116
vn 0 -1 0
vn 0 -1 0
vn 0 -1 0
vn 0 -1 0
vn 0 -1 0
vn 0 -1 0
vn 0.8944271909999157 0.44721359549995787 0
vn 0.8944271909999157 0.44721359549995787 0
vn 0.8944271909999157 0.44721359549995787 0
vn 0 0.44721359549995787 -0.8944271909999157
vn 0 0.44721359549995787 -0.8944271909999157
vn 0 0.44721359549995787 -0.8944271909999157
vn -0.8944271909999157 0.44721359549995787 0
vn -0.8944271909999157 0.44721359549995787 0
vn -0.8944271909999157 0.44721359549995787 0
vn 0 0.44721359549995787 0.8944271909999157
vn 0 0.44721359549995787 0.8944271909999157
vn 0 0.44721359549995787 0.8944271909999157
f 1/1/1 2/2/2 3/3/3
f 4/4/4 5/5/5 6/6/6
f 7/7/7 8/8/8 9/9/9
f 10/10/10 11/11/11 12/12/12
f 13/13/13 14/14/14 15/15/15
f 16/16/16 17/17/17 18/18/18
